<svg width="1600" height="1100" viewBox="0 0 1600 1100" fill="none" xmlns="http://www.w3.org/2000/svg">
  <defs>
    <linearGradient id="bg" x1="0" y1="0" x2="1" y2="1">
      <stop offset="0%" stop-color="#111B35"/>
      <stop offset="65%" stop-color="#0A1227"/>
      <stop offset="100%" stop-color="#050A17"/>
    </linearGradient>
    <radialGradient id="glow" cx="0" cy="0" r="1" gradientUnits="userSpaceOnUse" gradientTransform="translate(1180 720) rotate(120) scale(520 420)">
      <stop offset="0%" stop-color="#4ADE80" stop-opacity="0.22"/>
      <stop offset="100%" stop-color="#4ADE80" stop-opacity="0"/>
    </radialGradient>
    <linearGradient id="machine" x1="0" y1="0" x2="1" y2="1">
      <stop offset="0%" stop-color="#24324F" stop-opacity="0.65"/>
      <stop offset="100%" stop-color="#0D162B" stop-opacity="0.05"/>
    </linearGradient>
    <filter id="blur" x="-20%" y="-20%" width="140%" height="140%">
      <feGaussianBlur stdDeviation="18"/>
    </filter>
  </defs>

  <rect width="1600" height="1100" fill="url(#bg)"/>
  <rect width="1600" height="1100" fill="url(#glow)"/>

  <g opacity="0.23">
    <rect x="760" y="130" width="140" height="420" rx="20" fill="url(#machine)"/>
    <rect x="690" y="220" width="320" height="60" rx="18" fill="#1A2742"/>
    <rect x="720" y="315" width="290" height="34" rx="12" fill="#1E2D49"/>
    <rect x="740" y="380" width="250" height="170" rx="24" fill="#16233C"/>
    <rect x="1060" y="260" width="58" height="390" rx="24" fill="#121D32"/>
    <rect x="1106" y="310" width="28" height="220" rx="14" fill="#324364" fill-opacity="0.7"/>
  </g>

  <g opacity="0.18">
    <circle cx="1280" cy="860" r="210" fill="#E5E7EB" fill-opacity="0.08" filter="url(#blur)"/>
    <circle cx="1450" cy="980" r="170" fill="#E5E7EB" fill-opacity="0.07" filter="url(#blur)"/>
  </g>

  <g opacity="0.22" stroke="#D1D5DB" stroke-opacity="0.28">
    <path d="M1090 750L1290 960"/>
    <path d="M1150 710L1380 980"/>
    <path d="M1020 815L1250 1080"/>
    <path d="M1200 770L1510 1090"/>
    <path d="M980 905L1170 1090"/>
    <path d="M1320 720L1540 970"/>
  </g>

  <g fill="#F8FAFC" fill-opacity="0.20">
    <circle cx="1430" cy="590" r="9"/>
    <circle cx="1350" cy="640" r="6"/>
    <circle cx="1500" cy="660" r="12"/>
    <circle cx="1385" cy="740" r="8"/>
    <circle cx="1480" cy="790" r="10"/>
    <circle cx="1320" cy="845" r="7"/>
    <circle cx="1455" cy="890" r="9"/>
    <circle cx="1260" cy="710" r="5"/>
    <circle cx="1540" cy="760" r="8"/>
  </g>

  <g stroke="#E2E8F0" stroke-opacity="0.1">
    <path d="M0 120H1600"/>
    <path d="M0 440H1600"/>
    <path d="M0 820H1600"/>
  </g>
</svg>
